G04 EAGLE Gerber RS-274X export*
G75*
%MOMM*%
%FSLAX34Y34*%
%LPD*%
%INBottom Copper*%
%IPPOS*%
%AMOC8*
5,1,8,0,0,1.08239X$1,22.5*%
G01*
G04 Define Apertures*
%ADD10C,1.524000*%
%ADD11P,2.19942X8X112.5*%
%ADD12C,2.032000*%
%ADD13C,8.000000*%
%ADD14C,0.457200*%
%ADD15C,2.016000*%
D10*
X850900Y325120D02*
X850900Y309880D01*
X825500Y309880D02*
X825500Y325120D01*
X800100Y325120D02*
X800100Y309880D01*
X774700Y309880D02*
X774700Y325120D01*
X749300Y325120D02*
X749300Y309880D01*
X723900Y309880D02*
X723900Y325120D01*
X698500Y325120D02*
X698500Y309880D01*
X716280Y982220D02*
X731520Y982220D01*
X731520Y956820D02*
X716280Y956820D01*
X716280Y931420D02*
X731520Y931420D01*
X731520Y906020D02*
X716280Y906020D01*
X716280Y880620D02*
X731520Y880620D01*
X731520Y855220D02*
X716280Y855220D01*
X716280Y829820D02*
X731520Y829820D01*
X731520Y804420D02*
X716280Y804420D01*
X716280Y779020D02*
X731520Y779020D01*
X731520Y753620D02*
X716280Y753620D01*
X716280Y728220D02*
X731520Y728220D01*
X731520Y702820D02*
X716280Y702820D01*
X716280Y677420D02*
X731520Y677420D01*
X731520Y652020D02*
X716280Y652020D01*
X716280Y626620D02*
X731520Y626620D01*
X731520Y601220D02*
X716280Y601220D01*
X716280Y575820D02*
X731520Y575820D01*
X731520Y550420D02*
X716280Y550420D01*
X716280Y525020D02*
X731520Y525020D01*
X731520Y499620D02*
X716280Y499620D01*
D11*
X63500Y673100D03*
X38100Y673100D03*
X63500Y698500D03*
X38100Y698500D03*
X63500Y723900D03*
X38100Y723900D03*
X63500Y749300D03*
X38100Y749300D03*
X63500Y774700D03*
X38100Y774700D03*
X595200Y673100D03*
X569800Y673100D03*
X595200Y698500D03*
X569800Y698500D03*
X595200Y723900D03*
X569800Y723900D03*
X595200Y749300D03*
X569800Y749300D03*
X595200Y774700D03*
X569800Y774700D03*
D10*
X198120Y482600D02*
X182880Y482600D01*
X182880Y508000D02*
X198120Y508000D01*
X198120Y533400D02*
X182880Y533400D01*
X58420Y533400D02*
X43180Y533400D01*
X43180Y508000D02*
X58420Y508000D01*
X58420Y482600D02*
X43180Y482600D01*
X538480Y393700D02*
X553720Y393700D01*
X553720Y368300D02*
X538480Y368300D01*
X538480Y342900D02*
X553720Y342900D01*
X976380Y982220D02*
X991620Y982220D01*
X991620Y956820D02*
X976380Y956820D01*
X976380Y931420D02*
X991620Y931420D01*
X991620Y906020D02*
X976380Y906020D01*
X976380Y880620D02*
X991620Y880620D01*
X991620Y855220D02*
X976380Y855220D01*
X976380Y829820D02*
X991620Y829820D01*
X991620Y804420D02*
X976380Y804420D01*
X976380Y779020D02*
X991620Y779020D01*
X991620Y753620D02*
X976380Y753620D01*
X976380Y728220D02*
X991620Y728220D01*
X991620Y702820D02*
X976380Y702820D01*
X976380Y677420D02*
X991620Y677420D01*
X991620Y652020D02*
X976380Y652020D01*
X976380Y626620D02*
X991620Y626620D01*
X991620Y601220D02*
X976380Y601220D01*
X976380Y575820D02*
X991620Y575820D01*
X991620Y550420D02*
X976380Y550420D01*
X976380Y525020D02*
X991620Y525020D01*
X991620Y499620D02*
X976380Y499620D01*
X350520Y482600D02*
X335280Y482600D01*
X335280Y508000D02*
X350520Y508000D01*
X350520Y533400D02*
X335280Y533400D01*
X474980Y495300D02*
X490220Y495300D01*
X490220Y520700D02*
X474980Y520700D01*
X474980Y546100D02*
X490220Y546100D01*
X490220Y393700D02*
X474980Y393700D01*
X474980Y368300D02*
X490220Y368300D01*
X490220Y342900D02*
X474980Y342900D01*
X292100Y325120D02*
X292100Y309880D01*
X317500Y309880D02*
X317500Y325120D01*
X342900Y325120D02*
X342900Y309880D01*
X368300Y309880D02*
X368300Y325120D01*
X393700Y325120D02*
X393700Y309880D01*
D12*
X1006094Y361188D03*
X1006094Y426212D03*
X1051306Y361188D03*
X1051306Y426212D03*
D10*
X71120Y388620D02*
X71120Y373380D01*
X96520Y373380D02*
X96520Y388620D01*
X121920Y388620D02*
X121920Y373380D01*
X147320Y373380D02*
X147320Y388620D01*
X172720Y388620D02*
X172720Y373380D01*
X198120Y373380D02*
X198120Y388620D01*
X223520Y388620D02*
X223520Y373380D01*
D13*
X1054100Y292100D03*
X50800Y292100D03*
X50800Y947140D03*
X1054100Y947140D03*
D14*
X1006250Y778750D02*
X985000Y778750D01*
X1006250Y778750D02*
X1006250Y426250D01*
X985000Y778750D02*
X984000Y779020D01*
X1006250Y426250D02*
X1006094Y426212D01*
X37500Y671250D02*
X28750Y662500D01*
X28750Y502500D01*
X47500Y483750D01*
X50000Y483750D01*
X37500Y671250D02*
X38100Y673100D01*
X50000Y483750D02*
X50800Y482600D01*
X191250Y387500D02*
X197500Y381250D01*
X191250Y387500D02*
X191250Y482500D01*
X197500Y381250D02*
X198120Y381000D01*
X191250Y482500D02*
X190500Y482600D01*
X461250Y520000D02*
X482500Y520000D01*
X461250Y520000D02*
X461250Y362500D01*
X480000Y343750D01*
X482500Y343750D01*
X482500Y520000D02*
X482600Y520700D01*
X482500Y343750D02*
X482600Y342900D01*
X12446Y698804D02*
X12446Y748696D01*
X38100Y774350D02*
X38100Y774700D01*
X38100Y774350D02*
X12446Y748696D01*
X12446Y698804D02*
X38100Y673150D01*
X38100Y673100D01*
X698750Y317500D02*
X710000Y328750D01*
X710000Y485000D01*
X723750Y498750D01*
X698750Y317500D02*
X698500Y317500D01*
X723750Y498750D02*
X723900Y499620D01*
X717500Y495000D02*
X691250Y521250D01*
X691250Y522500D01*
X717500Y495000D02*
X723900Y499620D01*
D15*
X691250Y522500D03*
D14*
X365000Y532500D02*
X343750Y532500D01*
X365000Y532500D02*
X365000Y477500D01*
X268750Y381250D01*
X223750Y381250D01*
X343750Y532500D02*
X342900Y533400D01*
X223750Y381250D02*
X223520Y381000D01*
X366250Y981250D02*
X723750Y981250D01*
X366250Y981250D02*
X366250Y533750D01*
X723750Y981250D02*
X723900Y982220D01*
X366250Y533750D02*
X365000Y532500D01*
X321250Y532500D02*
X191250Y532500D01*
X321250Y532500D02*
X321250Y466250D01*
X726250Y452500D02*
X797500Y523750D01*
X797500Y645000D01*
X191250Y532500D02*
X190500Y533400D01*
D15*
X321250Y466250D03*
X726250Y452500D03*
X797500Y645000D03*
D14*
X666250Y532500D02*
X562500Y428750D01*
X666250Y532500D02*
X666250Y596250D01*
X721250Y651250D01*
X723750Y651250D01*
X723900Y652020D01*
D15*
X562500Y428750D03*
D14*
X158750Y392500D02*
X147500Y381250D01*
X158750Y392500D02*
X158750Y528750D01*
X288750Y658750D01*
X147500Y381250D02*
X147320Y381000D01*
D15*
X288750Y658750D03*
D14*
X133750Y392500D02*
X122500Y381250D01*
X133750Y392500D02*
X133750Y527500D01*
X350000Y743750D01*
X122500Y381250D02*
X121920Y381000D01*
D15*
X350000Y743750D03*
D14*
X107500Y391250D02*
X97500Y381250D01*
X107500Y391250D02*
X107500Y530000D01*
X350000Y772500D01*
X97500Y381250D02*
X96520Y381000D01*
D15*
X350000Y772500D03*
D14*
X813750Y328750D02*
X825000Y317500D01*
X813750Y328750D02*
X813750Y817500D01*
X725000Y906250D01*
X825000Y317500D02*
X825500Y317500D01*
X723900Y906020D02*
X725000Y906250D01*
X840000Y327500D02*
X850000Y317500D01*
X840000Y327500D02*
X840000Y817500D01*
X725000Y932500D01*
X850000Y317500D02*
X850900Y317500D01*
X723900Y931420D02*
X725000Y932500D01*
X801250Y317500D02*
X811250Y307500D01*
X811250Y305000D01*
X820000Y296250D01*
X962500Y296250D01*
X962500Y886250D01*
X981250Y905000D01*
X983750Y905000D01*
X801250Y317500D02*
X800100Y317500D01*
X983750Y905000D02*
X984000Y906020D01*
X62500Y545000D02*
X51250Y533750D01*
X62500Y545000D02*
X62500Y672500D01*
X51250Y533750D02*
X50800Y533400D01*
X62500Y672500D02*
X63500Y673100D01*
X90200Y747300D02*
X63750Y773750D01*
X90200Y747300D02*
X90200Y700200D01*
X65000Y675000D01*
X63750Y773750D02*
X63500Y774700D01*
X65000Y675000D02*
X63500Y673100D01*
X306250Y328750D02*
X317500Y317500D01*
X306250Y328750D02*
X306250Y331250D01*
X278750Y358750D01*
X57500Y358750D01*
X57500Y462500D01*
X72500Y477500D01*
X72500Y515000D01*
X53750Y533750D01*
X50800Y533400D01*
X393750Y317500D02*
X443750Y367500D01*
X443750Y693950D01*
X629800Y880000D01*
X723750Y880000D01*
X393750Y317500D02*
X393700Y317500D01*
X723750Y880000D02*
X723900Y880620D01*
X368750Y317500D02*
X380000Y306250D01*
X380000Y303750D01*
X387500Y296250D01*
X452500Y296250D01*
X452500Y690200D01*
X617300Y855000D01*
X723750Y855000D01*
X368750Y317500D02*
X368300Y317500D01*
X723750Y855000D02*
X723900Y855220D01*
X343750Y317500D02*
X353750Y307500D01*
X353750Y305000D01*
X371250Y287500D01*
X675000Y287500D01*
X675000Y553750D01*
X721250Y600000D01*
X723750Y600000D01*
X343750Y317500D02*
X342900Y317500D01*
X723750Y600000D02*
X723900Y601220D01*
X537500Y447500D02*
X483750Y393750D01*
X537500Y447500D02*
X537500Y583550D01*
X702500Y748550D01*
X702500Y810000D01*
X721250Y828750D01*
X723750Y828750D01*
X483750Y393750D02*
X482600Y393700D01*
X723750Y828750D02*
X723900Y829820D01*
X546250Y577500D02*
X546250Y393750D01*
X546250Y577500D02*
X721250Y752500D01*
X723750Y752500D01*
X546250Y393750D02*
X546100Y393700D01*
X723750Y752500D02*
X723900Y753620D01*
M02*
