M48
;GenerationSoftware,Autodesk,EAGLE,9.7.0*%
;CreationDate,2025-11-17T18:50:27Z*%
FMAT,2
ICI,OFF
METRIC,TZ,000.000
T3C1.000
T2C1.016
T1C3.200
%
G90
M71
T1
X105410Y29210
X5080Y29210
X5080Y94714
X105410Y94714
X105410Y94714
X5080Y94714
X5080Y29210
X105410Y29210
T2
X80010Y31750
X17272Y38100
X19812Y38100
X22352Y38100
X100609Y36119
X85090Y31750
X82550Y31750
X72390Y75362
X77470Y31750
X74930Y31750
X72390Y31750
X69850Y31750
X72390Y98222
X72390Y95682
X72390Y93142
X72390Y90602
X72390Y88062
X72390Y85522
X72390Y82982
X72390Y80442
X72390Y77902
X72390Y72822
X72390Y70282
X72390Y67742
X72390Y65202
X72390Y62662
X72390Y60122
X72390Y57582
X72390Y55042
X72390Y52502
X72390Y49962
X6350Y67310
X3810Y67310
X6350Y69850
X3810Y69850
X6350Y72390
X3810Y72390
X6350Y74930
X3810Y74930
X6350Y77470
X3810Y77470
X59520Y67310
X56980Y67310
X59520Y69850
X56980Y69850
X59520Y72390
X56980Y72390
X59520Y74930
X56980Y74930
X59520Y77470
X56980Y77470
X19050Y48260
X19050Y50800
X19050Y53340
X5080Y53340
X5080Y50800
X5080Y48260
X54610Y39370
X54610Y36830
X54610Y34290
X98400Y98222
X98400Y95682
X98400Y93142
X98400Y90602
X98400Y88062
X98400Y85522
X98400Y82982
X98400Y80442
X98400Y77902
X98400Y75362
X98400Y72822
X98400Y70282
X98400Y67742
X98400Y65202
X98400Y62662
X98400Y60122
X98400Y57582
X98400Y55042
X98400Y52502
X98400Y49962
X34290Y50800
X34290Y53340
X48260Y49530
X48260Y52070
X48260Y54610
X48260Y39370
X48260Y36830
X48260Y34290
X29210Y31750
X31750Y31750
X34290Y31750
X36830Y31750
X39370Y31750
X34290Y48260
X100609Y42621
X105131Y36119
X105131Y42621
X7112Y38100
X9652Y38100
X12192Y38100
X14732Y38100
T3
X32125Y46625
X72625Y45250
X79750Y64500
X56250Y42875
X35000Y77250
X35000Y74375
X28875Y65875
X69125Y52250
M30